{"title":"Rush - Beyond The Lighted Stage (2010) [DVDRip] [DivX]","uid":7442650,"size":787080107,"categoryP":"video","categoryS":"movies","magnet":"?xt=urn:btih:c034f9ca1f16d1235cb440c6b24fde22d74f5f75&amp;dn=Rush+-+Beyond+The+Lighted+Stage+%282010%29+%5BDVDRip%5D+%5BDivX%5D&amp;tr=udp%3A%2F%2Ftracker.openbittorrent.com%3A80&amp;tr=udp%3A%2F%2Fopen.demonii.com%3A1337&amp;tr=udp%3A%2F%2Ftracker.coppersurfer.tk%3A6969&amp;tr=udp%3A%2F%2Fexodus.desync.com%3A6969","seeders":10,"leechers":0,"uploader":"qculfj","files":2,"time":1342271956,"description":"General\nComplete name : Rush - Beyond The Lighted Stage (2010) \nFormat : AVI\nFormat/Info : Audio Video Interleave\nFile size : 751 MiB\nDuration : 1h 46mn\nOverall bit rate : 981 Kbps\nWriting application : VirtualDubMod 1.5.4.1 (build 2178/release)\nWriting library : VirtualDubMod build 2178/release\n\nVideo\nID : 0\nFormat : MPEG-4 Visual\nFormat profile : AdvancedSimple@L5\nFormat settings, BVOP : Yes\nFormat settings, QPel : No\nFormat settings, GMC : No warppoints\nFormat settings, Matrix : Custom\nCodec ID : XVID\nCodec ID/Hint : XviD\nDuration : 1h 46mn\nBit rate : 527 Kbps\nWidth : 560 pixels\nHeight : 320 pixels\nDisplay aspect ratio : 16:9\nFrame rate : 23.976 fps\nResolution : 24 bits\nColorimetry : 4:2:0\nScan type : Progressive\nBits/(Pixel*Frame) : 0.123\nStream size : 403 MiB (54%)\nWriting library : XviD 1.2.1 (UTC 2008-12-04)\n\nAudio\nID : 1\nFormat : AC-3\nFormat/Info : Audio Coding 3\nCodec ID : 2000\nDuration : 1h 46mn\nBit rate mode : Constant\nBit rate : 448 Kbps\nChannel(s) : 6 channels\nChannel positions : Front: L C R, Surround: L R, LFE\nSampling rate : 48.0 KHz\nStream size : 343 MiB (46%)\nAlignment : Split accross interleaves\nInterleave, duration : 96 ms (2.30 video frames)\nInterleave, preload duration : 96 ms\nLanguage : English","torrent":{"xt":"urn:btih:c034f9ca1f16d1235cb440c6b24fde22d74f5f75","amp;dn":"Rush+-+Beyond+The+Lighted+Stage+%282010%29+%5BDVDRip%5D+%5BDivX%5D","amp;tr":["udp%3A%2F%2Ftracker.openbittorrent.com%3A80","udp%3A%2F%2Fopen.demonii.com%3A1337","udp%3A%2F%2Ftracker.coppersurfer.tk%3A6969","udp%3A%2F%2Fexodus.desync.com%3A6969"],"infoHash":"c034f9ca1f16d1235cb440c6b24fde22d74f5f75","infoHashBuffer":{"type":"Buffer","data":[192,52,249,202,31,22,209,35,92,180,64,198,178,79,222,34,215,79,95,117]},"announce":[],"urlList":[]}}